<svg xmlns="http://www.w3.org/2000/svg" version="1.1" xmlns:xlink="http://www.w3.org/1999/xlink" xmlns:svgjs="http://svgjs.dev/svgjs" width="128" height="128" viewBox="0 0 128 128"><g transform="matrix(0.8046875,0,0,0.8046875,12.77356029179365,18.29056452604486)"><svg viewBox="0 0 95 84" data-background-color="#000000" preserveAspectRatio="xMidYMid meet" height="113" width="128" xmlns="http://www.w3.org/2000/svg" xmlns:xlink="http://www.w3.org/1999/xlink"><g id="tight-bounds" transform="matrix(1,0,0,1,-0.24049999999999727,0.22696052395684774)"><svg viewBox="0 0 95.481 83.54607895208629" height="83.54607895208629" width="95.481"><g><svg viewBox="0 0 95.481 83.54607895208629" height="83.54607895208629" width="95.481"><g><svg viewBox="0 0 95.481 83.54607895208629" height="83.54607895208629" width="95.481"><g id="textblocktransform"><svg viewBox="0 0 95.481 83.54607895208629" height="83.54607895208629" width="95.481" id="textblock"><g><svg viewBox="0 0 95.481 83.54607895208629" height="83.54607895208629" width="95.481"><g><svg viewBox="0 0 95.481 83.54607895208629" height="83.54607895208629" width="95.481"><g><svg xmlns="http://www.w3.org/2000/svg" data-name="Camada 1" viewBox="16.000117284045174 22 95.99976564549132 84" x="0" y="0" height="83.54607895208629" width="95.481" class="icon-icon-0" data-fill-palette-color="accent" id="icon-0"><path d="M111.868 80.375l-4.61-8.042a1 1 0 0 0-0.868-0.503H97.75L83.592 47.127 87.916 39.582a1.001 1.001 0 0 0 0.001-0.994l-9.22-16.085A1 1 0 0 0 77.829 22H50.171a1 1 0 0 0-0.868 0.503l-4.61 8.042a1.001 1.001 0 0 0 0 0.995L49.018 39.085 34.86 63.788H26.219a1 1 0 0 0-0.867 0.503l-9.22 16.085a1.001 1.001 0 0 0 0 0.994l13.829 24.127A1 1 0 0 0 30.829 106h9.22a1 1 0 0 0 0.868-0.503l4.321-7.539H73.543l4.322 7.539A1 1 0 0 0 78.732 106H97.171a1 1 0 0 0 0.868-0.503l13.829-24.128A1.001 1.001 0 0 0 111.868 80.375ZM97.171 73.83h8.64l3.463 6.043H93.14L69.478 38.588l-3.752-6.546h6.914L96.303 73.327A1 1 0 0 0 97.171 73.83ZM40.628 87.915l-3.463-6.042H82.762L86.226 87.915ZM59.97 40.085h6.914l-3.752 6.545L44.079 79.873H37.165ZM64 49.138L81.616 79.873H46.384ZM84.209 80.375l-19.056-33.248 3.457-6.031L91.408 80.873l-3.456 6.031ZM79.555 40.085h5.767L82.439 45.116Zm5.767-2H78.409L74.087 30.545a1 1 0 0 0-0.867-0.503H64a1 1 0 0 0-0.868 1.498L66.884 38.085H59.97L51.897 24H77.25ZM51.039 39.582a1.001 1.001 0 0 0 0-0.994l-4.325-7.546L50.171 25.011 58.238 39.085 34.571 80.375 30.829 86.904l-3.457-6.031 8.935-15.588ZM30.829 70.819L27.945 65.788H33.713ZM18.153 80.873l8.066-14.074 3.458 6.031-4.325 7.545a1.001 1.001 0 0 0 0 0.995l4.609 8.042a1 1 0 0 0 1.736 0l3.742-6.529L38.896 88.915 30.829 102.989Zm26.505 15.085a1 1 0 0 0-0.867 0.502L39.469 104H32.555l8.073-14.085H95.445l-3.464 6.042H44.658Zm31.19 2h5.768L78.732 102.989ZM96.591 104H80.458l3.463-6.042H92.561a1 1 0 0 0 0.868-0.503l4.61-8.043A1 1 0 0 0 97.171 87.915H89.677l3.463-6.042h16.134Z" fill="#000000" data-fill-palette-color="accent"></path></svg></g></svg></g></svg></g></svg></g></svg></g><g></g></svg></g><defs></defs></svg><rect width="95.481" height="83.54607895208629" fill="none" stroke="none" visibility="hidden"></rect></g></svg></g></svg>